<svg xmlns="http://www.w3.org/2000/svg" viewBox="0 0 480 150" width="480" height="150">
  <defs>
    <linearGradient id="g" x1="0" y1="0" x2="1" y2="1">
      <stop offset="0" stop-color="#6D28D9"/>
      <stop offset="1" stop-color="#DB2777"/>
    </linearGradient>
  </defs>
  <!-- שני לבבות שלובים -->
  <g transform="translate(340,18)">
    <path d="M55 96C30 70 6 60 6 34A26 26 0 0 1 55 20 26 26 0 0 1 104 34c0 26-24 36-49 62z"
          fill="url(#g)"/>
    <path d="M70 96C45 70 21 60 21 34A26 26 0 0 1 70 20 26 26 0 0 1 119 34c0 26-24 36-49 62z"
          fill="none" stroke="#fff" stroke-width="4" opacity="0.55"/>
  </g>
  <!-- שם המותג בעברית -->
  <text x="320" y="70" text-anchor="end"
        font-family="Inter, system-ui, sans-serif" font-size="48"
        font-weight="800" fill="#6D28D9">לב אל לב</text>
  <text x="320" y="108" text-anchor="end"
        font-family="Inter, system-ui, sans-serif" font-size="22"
        font-weight="600" fill="#DB2777" letter-spacing="2">שידוכים בקהילה</text>
</svg>
