<svg xmlns="http://www.w3.org/2000/svg" viewBox="0 0 480 150" width="480" height="150">
  <defs>
    <linearGradient id="g" x1="0" y1="0" x2="1" y2="1">
      <stop offset="0" stop-color="#6D28D9"/>
      <stop offset="1" stop-color="#DB2777"/>
    </linearGradient>
  </defs>
  <!-- two interlocking hearts -->
  <g transform="translate(20,18)">
    <path d="M55 96C30 70 6 60 6 34A26 26 0 0 1 55 20 26 26 0 0 1 104 34c0 26-24 36-49 62z"
          fill="url(#g)"/>
    <path d="M70 96C45 70 21 60 21 34A26 26 0 0 1 70 20 26 26 0 0 1 119 34c0 26-24 36-49 62z"
          fill="none" stroke="#fff" stroke-width="4" opacity="0.55"/>
  </g>
  <!-- wordmark -->
  <text x="170" y="68" font-family="Inter, system-ui, sans-serif" font-size="40"
        font-weight="800" fill="#6D28D9" letter-spacing="-1">Heart2Heart</text>
  <text x="172" y="104" font-family="Inter, system-ui, sans-serif" font-size="20"
        font-weight="600" fill="#DB2777" letter-spacing="3">MATCHMAKING</text>
</svg>
